<svg width="111" height="172" viewBox="0 0 111 172" fill="none" xmlns="http://www.w3.org/2000/svg">
<path d="M59.8222 55.0559C59.7301 56.5903 59.5511 57.9968 59.3516 59.4544C59.1522 60.9121 58.8811 62.3391 58.5742 63.7711C57.9759 66.6696 57.1113 69.5066 55.9914 72.246L55.5259 73.2689L55.4134 73.5246L55.3725 73.6576L55.2907 73.8213C55.1343 74.1423 54.9365 74.4415 54.7025 74.7112C54.4236 75.0249 54.0911 75.2864 53.7205 75.4835C53.3567 75.6744 52.9618 75.799 52.5544 75.8517C51.9287 75.9186 51.296 75.8524 50.6978 75.6574C49.8503 75.3681 49.0505 74.9544 48.3246 74.4299C47.6897 73.9822 47.0833 73.4954 46.509 72.9722C44.3563 70.9762 42.4192 68.7597 40.7295 66.3591L42.4224 64.9219C43.4453 65.8681 44.4682 66.8245 45.4912 67.7298C46.5082 68.6349 47.5699 69.4884 48.6724 70.2871C49.1914 70.6583 49.731 70.9999 50.2886 71.31C50.7381 71.5827 51.2236 71.791 51.7309 71.9289C51.9048 71.9647 52.0276 71.9289 51.9713 71.9289C51.8507 71.9423 51.7377 71.9943 51.6491 72.0772C51.6184 72.0772 51.6184 72.0772 51.6491 72.0772L51.8128 71.6527L52.1708 70.7218C53.058 68.159 53.7504 65.5329 54.2422 62.8659C54.5133 61.5258 54.7025 60.1603 54.9071 58.8049C55.1117 57.4495 55.2549 56.0533 55.3725 54.7593L59.8222 55.0559Z" fill="#FECEA5"/>
<path d="M56.7226 49.425C54.8149 49.9109 53.48 57.7566 53.48 57.7566L58.7326 61.3368C58.7326 61.3368 63.7705 53.4246 62.3128 51.3276C60.7785 49.1335 59.505 48.7192 56.7226 49.425Z" fill="#9ECEE0"/>
<path d="M56.7226 49.425C54.8149 49.9109 53.48 57.7566 53.48 57.7566L58.7326 61.3368C58.7326 61.3368 63.7705 53.4246 62.3128 51.3276C60.7785 49.1335 59.505 48.7192 56.7226 49.425Z" fill="#F2F2F2"/>
<path opacity="0.3" d="M56.8915 51.179L55.4287 59.081L58.3798 61.0859L56.8915 51.179Z" fill="#424242"/>
<path d="M42.5094 64.5998L40.0288 60.6514L38.6121 65.1368C38.6121 65.1368 40.6579 67.285 42.5145 66.7735L42.5094 64.5998Z" fill="#FECEA5"/>
<path d="M36.3462 59.3469L35.3643 63.1624L38.5915 65.1366L40.0083 60.6511L36.3462 59.3469Z" fill="#FECEA5"/>
<path d="M66.5919 167.971H62.817L62.5623 158.904H66.3414L66.5919 167.971Z" fill="#FECEA5"/>
<path d="M107.896 149.186L104.22 151.852L95.8069 145.447L99.4827 142.785L107.896 149.186Z" fill="#FECEA5"/>
<path d="M103.533 151.239L106.813 147.93C106.869 147.873 106.947 147.836 107.032 147.825C107.116 147.815 107.203 147.832 107.274 147.873L110.613 149.779C110.695 149.829 110.765 149.894 110.816 149.97C110.868 150.046 110.901 150.13 110.913 150.218C110.925 150.306 110.916 150.395 110.886 150.479C110.856 150.564 110.807 150.641 110.74 150.708C109.574 151.844 108.946 152.341 107.505 153.793C106.622 154.687 105.431 156.078 104.205 157.309C102.979 158.541 101.528 157.547 101.915 156.934C103.636 154.194 103.224 153.235 103.254 151.887C103.258 151.649 103.357 151.42 103.533 151.239Z" fill="#241E17"/>
<path d="M62.2629 166.963H67.6087C67.7007 166.962 67.7899 166.992 67.8596 167.048C67.9293 167.104 67.9748 167.181 67.9876 167.266L68.5979 171.174C68.6151 171.278 68.6074 171.383 68.5755 171.483C68.5435 171.584 68.4881 171.676 68.4132 171.754C68.3383 171.832 68.2457 171.894 68.1421 171.934C68.0385 171.975 67.9264 171.994 67.8139 171.99C65.9513 171.961 65.0516 171.858 62.6997 171.858C61.2527 171.858 58.2641 172 56.2647 172C54.2653 172 54.1601 170.163 54.9967 170.002C58.7219 169.254 60.1899 168.228 61.4474 167.246C61.6735 167.064 61.9632 166.963 62.2629 166.963Z" fill="#241E17"/>
<path d="M56.7227 49.4248C56.7227 49.4248 54.5183 50.2022 58.9322 77.3401H77.7129C77.4009 69.6938 77.3907 64.9782 81.0425 49.2918C78.4133 48.7497 75.7486 48.3976 73.0689 48.2382C70.2288 48.0358 67.3779 48.0358 64.5378 48.2382C60.8757 48.5962 56.7227 49.4248 56.7227 49.4248Z" fill="#F2F2F2"/>
<path d="M73.0688 48.2382C70.2287 48.0358 67.3778 48.0358 64.5377 48.2382C64.0774 48.2791 63.6068 48.3303 63.1414 48.3865C62.9488 48.6772 62.8256 49.0082 62.7813 49.3541C62.737 49.6999 62.7727 50.0513 62.8857 50.3812C63.4841 51.8695 65.6424 52.0434 67.2177 52.0434C73.033 52.0434 74.015 48.6474 74.0559 48.5042L74.1122 48.2996C73.7848 48.2791 73.4166 48.2535 73.0688 48.2382Z" fill="white"/>
<path d="M72.2505 38.6379C71.7083 41.3793 71.1764 46.407 73.0944 48.238C73.0944 48.238 72.3425 51.0254 67.2433 51.0254C61.6173 51.0254 64.5633 48.2431 64.5633 48.2431C67.632 47.5117 67.5451 45.2408 67.0131 43.1285L72.2505 38.6379Z" fill="#FECEA5"/>
<path opacity="0.2" d="M70.087 40.459L66.9875 43.1032C67.121 43.6059 67.21 44.1193 67.2535 44.6376C68.4196 44.4688 70.0256 43.185 70.1535 41.9627C70.2252 41.4617 70.2026 40.9517 70.087 40.459Z" fill="#424242"/>
<path d="M69.0334 23.714C68.5577 22.1029 68.1588 19.566 71.0229 18.4204C69.9029 17.0497 69.6318 14.4719 71.0229 12.9427C72.4141 11.4134 74.5008 11.976 74.5008 11.976C74.5008 11.976 75.1146 8.23728 79.6614 8.90729C84.2083 9.57729 82.1829 12.5693 82.1829 12.5693C82.1829 12.5693 88.3869 11.3418 88.8012 17.1724C89.2154 23.003 85.6557 22.287 85.6557 22.287C85.6557 22.287 88.4227 24.609 86.8883 27.1612C85.3539 29.7133 81.8096 28.8336 81.8096 28.8336C81.8096 28.8336 80.1422 33.3447 76.2142 30.7772C72.2862 28.2097 69.0334 23.714 69.0334 23.714Z" fill="#241E17"/>
<path d="M59.8221 27.1154C58.2877 29.0999 58.9628 31.3451 60.3335 32.23C63.6324 34.3372 68.4043 25.4992 67.1615 24.4405C65.9186 23.3818 61.3564 25.1258 59.8221 27.1154Z" fill="#241E17"/>
<path d="M73.6775 22.3892C71.509 21.5146 69.3097 22.4301 68.6244 23.7496C66.9519 26.9667 74.547 32.7615 76.7463 28.7415C78.0505 26.353 75.9126 23.2893 73.6775 22.3892Z" fill="#9ECEE0"/>
<path d="M72.762 32.2296C72.9205 36.8327 73.0842 38.7557 71.0026 41.3181C67.8776 45.1694 62.2055 44.3613 60.6814 39.9116C59.3107 35.9069 59.2851 29.079 63.5762 26.8388C64.5195 26.3398 65.5747 26.0903 66.6416 26.1138C67.7084 26.1374 68.7516 26.4333 69.6719 26.9734C70.5923 27.5135 71.3593 28.2799 71.9001 29.1999C72.4409 30.1198 72.7376 31.1627 72.762 32.2296Z" fill="#FECEA5"/>
<path d="M72.0714 34.6387C70.0255 33.8766 69.5141 31.4881 69.8414 30.547C68.8185 30.5061 66.5834 30.1378 65.7498 28.8694C64.154 29.8923 60.7835 30.9153 60.4204 29.2121C60.0573 27.5089 65.1411 23.1309 68.9873 22.7933C73.5597 22.3944 78.0707 26.885 76.9097 31.1863C75.7487 35.4877 72.0714 34.6387 72.0714 34.6387Z" fill="#241E17"/>
<path d="M58.8751 77.3032C58.8751 77.3032 55.2262 108.477 55.5281 120.821C55.8454 133.657 61.2241 162.933 61.2241 162.933H67.4778C67.4778 162.933 66.4901 134.405 67.0428 121.801C67.6467 108.056 72.6364 77.3032 72.6364 77.3032H58.8751Z" fill="#C7C7C7"/>
<path opacity="0.2" d="M67.0336 86.2034C62.4305 95.4812 66.1078 112.41 67.7394 118.712C68.5731 109.25 69.9847 97.6856 71.0843 89.1954C70.3887 84.398 69.1817 81.9225 67.0336 86.2034Z" fill="#424242"/>
<path d="M63.5697 77.3121C63.5697 77.3121 67.8796 109.595 71.1327 119.961C74.9971 132.267 98.9968 148.83 98.9968 148.83L103.866 145.263C103.866 145.263 86.4712 127.269 83.5133 120.786C77.2091 106.965 82.6068 86.3315 77.5665 77.3032L63.5697 77.3121Z" fill="#C7C7C7"/>
<path d="M65.9545 34.1529C65.9903 34.5263 65.8215 34.8434 65.5812 34.869C65.3408 34.8945 65.1106 34.6081 65.0697 34.2399C65.0288 33.8716 65.2027 33.5443 65.4482 33.5238C65.6937 33.5034 65.9187 33.7642 65.9545 34.1529Z" fill="#241E17"/>
<path d="M61.7606 34.5567C61.7964 34.9249 61.6276 35.2471 61.3821 35.2727C61.1366 35.2983 60.9167 35.0119 60.8707 34.6385C60.8246 34.2651 61.0036 33.948 61.244 33.9276C61.4844 33.9071 61.7248 34.1833 61.7606 34.5567Z" fill="#241E17"/>
<path d="M61.3615 33.9378L60.446 33.7639C60.446 33.7639 60.9984 34.4186 61.3615 33.9378Z" fill="#241E17"/>
<path d="M62.9267 35.0884C62.6777 35.9665 62.3094 36.8063 61.8322 37.5843C62.035 37.701 62.2607 37.7724 62.4938 37.7936C62.7269 37.8148 62.9618 37.7852 63.1824 37.707L62.9267 35.0884Z" fill="#E0995B"/>
<path d="M65.2435 38.9297C65.0409 38.9852 64.8338 39.0228 64.6247 39.0422C64.6106 39.0436 64.5963 39.0422 64.5827 39.0381C64.5692 39.034 64.5565 39.0272 64.5456 39.0182C64.5347 39.0091 64.5256 38.998 64.519 38.9855C64.5124 38.9729 64.5083 38.9592 64.507 38.945C64.5041 38.916 64.5126 38.8869 64.5308 38.864C64.5489 38.8411 64.5752 38.8261 64.6042 38.8223C65.0671 38.7882 65.5156 38.646 65.9136 38.4071C66.3116 38.1681 66.6479 37.8391 66.8955 37.4465C66.9014 37.4329 66.9101 37.4208 66.9211 37.411C66.932 37.4011 66.945 37.3937 66.9591 37.3894C66.9732 37.385 66.9881 37.3837 67.0027 37.3856C67.0173 37.3875 67.0314 37.3926 67.0439 37.4004C67.0691 37.4145 67.088 37.4378 67.0966 37.4654C67.1051 37.493 67.1028 37.5229 67.0899 37.5488C66.6773 38.2316 66.0151 38.7269 65.2435 38.9297Z" fill="#241E17"/>
<path d="M73.836 35.4058C73.724 36.2859 73.2679 37.0859 72.5675 37.6306C71.6316 38.3467 70.7314 37.6306 70.624 36.5105C70.5319 35.4876 70.9002 33.9532 72.0152 33.6566C72.2585 33.607 72.5102 33.6173 72.7487 33.6864C72.9872 33.7556 73.2053 33.8816 73.3844 34.0536C73.5634 34.2256 73.6981 34.4385 73.7767 34.6741C73.8554 34.9096 73.8757 35.1607 73.836 35.4058Z" fill="#FECEA5"/>
<path d="M66.4046 31.5238C66.3761 31.531 66.3466 31.5325 66.3176 31.5281C66.2886 31.5237 66.2608 31.5135 66.2358 31.4982C66.0039 31.3503 65.7403 31.2592 65.4665 31.2325C65.1928 31.2059 64.9166 31.2443 64.6605 31.3448C64.6073 31.3684 64.5471 31.371 64.492 31.3521C64.437 31.3331 64.3912 31.2939 64.3638 31.2425C64.3391 31.1902 64.336 31.1303 64.3552 31.0758C64.3743 31.0212 64.4142 30.9764 64.4661 30.951C64.7882 30.818 65.1376 30.7643 65.4847 30.7946C65.8318 30.8249 66.1666 30.9381 66.4608 31.1249C66.4851 31.1396 66.5062 31.1589 66.523 31.1818C66.5397 31.2047 66.5518 31.2307 66.5584 31.2583C66.5651 31.2859 66.5662 31.3145 66.5618 31.3425C66.5573 31.3705 66.5473 31.3974 66.5324 31.4215C66.5042 31.4705 66.4585 31.507 66.4046 31.5238Z" fill="#241E17"/>
<path d="M59.7044 32.7975C59.6517 32.8176 59.5935 32.8176 59.5408 32.7975C59.4911 32.7685 59.4544 32.7216 59.4383 32.6665C59.4221 32.6113 59.4277 32.5521 59.4538 32.5009C59.6099 32.1896 59.8387 31.9206 60.121 31.7166C60.4033 31.5127 60.7306 31.38 61.0751 31.3296C61.1038 31.3268 61.1327 31.3298 61.1601 31.3384C61.1876 31.347 61.213 31.361 61.235 31.3796C61.2569 31.3982 61.2749 31.421 61.2879 31.4467C61.3008 31.4724 61.3085 31.5004 61.3104 31.5291C61.3146 31.5866 61.2961 31.6436 61.2588 31.6876C61.2215 31.7316 61.1684 31.7592 61.1109 31.7644C60.8396 31.81 60.5828 31.919 60.3616 32.0826C60.1403 32.2461 59.9607 32.4595 59.8374 32.7055C59.8229 32.7292 59.8036 32.7497 59.7807 32.7656C59.7577 32.7814 59.7318 32.7923 59.7044 32.7975Z" fill="#241E17"/>
<path d="M82.9603 54.2786C84.0032 56.8298 84.9031 59.4371 85.6557 62.0885C86.4535 64.763 87.0216 67.5007 87.3537 70.2718C87.4407 70.9776 87.4663 71.7192 87.497 72.4506V72.8649C87.497 73.0132 87.4714 73.1667 87.4509 73.2996C87.4083 73.5552 87.3503 73.808 87.277 74.0566C87.1438 74.4819 86.9726 74.8945 86.7656 75.2892C86.0564 76.6005 85.1871 77.8185 84.1776 78.9154C82.3107 80.9663 80.2559 82.8378 78.0401 84.5056L76.562 82.8639C78.2652 80.8743 79.9837 78.8336 81.4413 76.7264C82.1456 75.7701 82.7457 74.7414 83.2314 73.6577C83.3147 73.4479 83.3831 73.2326 83.436 73.0132C83.4499 72.9389 83.4584 72.8637 83.4616 72.7882C83.4642 72.7661 83.4642 72.7438 83.4616 72.7217V72.6501C83.3951 72.0466 83.349 71.443 83.2365 70.8242C82.7965 68.2976 82.183 65.8043 81.4004 63.362C80.6179 60.8866 79.7433 58.3753 78.8431 55.9817L82.9603 54.2786Z" fill="#FECEA5"/>
<path d="M81.0425 49.2917C82.9246 49.8645 85.1853 56.3447 85.1853 56.3447L77.8766 61.5616C77.8766 61.5616 75.2119 56.1555 76.0046 53.7209C76.8537 51.1892 78.8995 48.637 81.0425 49.2917Z" fill="#F2F2F2"/>
<path d="M77.9942 76.2147L78.4749 77.8974C78.5414 78.0253 78.388 78.1583 78.1681 78.1583H58.8401C58.6713 78.1583 58.5281 78.0764 58.5179 77.969L58.3491 76.2915C58.3491 76.1738 58.4821 76.0766 58.6713 76.0766H77.6924C77.7503 76.0717 77.8086 76.0819 77.8614 76.1061C77.9143 76.1302 77.96 76.1677 77.9942 76.2147Z" fill="#E9E9E9"/>
<path d="M75.442 78.363H75.9534C76.0506 78.363 76.1273 78.3119 76.1222 78.2454L75.8818 76.0615C75.8818 76.0001 75.7898 75.9438 75.6875 75.9438H75.176C75.0737 75.9438 74.997 76.0001 75.0073 76.0615L75.2425 78.2454C75.2528 78.3119 75.3192 78.363 75.442 78.363Z" fill="#9E9E9E"/>
<path d="M60.2721 78.363H60.7836C60.8859 78.363 60.9626 78.3119 60.9575 78.2454L60.7171 76.0615C60.7171 76.0001 60.6199 75.9438 60.5227 75.9438H60.0113C59.909 75.9438 59.8323 76.0001 59.8374 76.0615L60.0778 78.2454C60.0829 78.3119 60.1698 78.363 60.2721 78.363Z" fill="#9E9E9E"/>
<path d="M67.8571 78.363H68.3685C68.4708 78.363 68.5475 78.3119 68.5424 78.2454L68.302 76.0615C68.302 76.0001 68.21 75.9438 68.1077 75.9438H67.5962C67.4939 75.9438 67.4172 76.0001 67.4274 76.0615L67.6474 78.2607C67.6474 78.3119 67.7548 78.363 67.8571 78.363Z" fill="#9E9E9E"/>
<path d="M65.5607 33.5338L64.6451 33.3599C64.6451 33.3599 65.1668 34.0145 65.5607 33.5338Z" fill="#241E17"/>
<path opacity="0.2" d="M62.7667 69.5469C57.5108 73.4619 51.2121 75.7305 44.6669 76.0658C38.1217 76.4011 31.6241 74.788 25.9957 71.4305C20.3672 68.073 15.8608 63.1219 13.0461 57.2032C10.2314 51.2845 9.23499 44.6642 10.1828 38.1792C11.1306 31.6943 13.98 25.6361 18.3708 20.7706C22.7616 15.9051 28.4965 12.4509 34.8504 10.8448C41.2043 9.23867 47.8918 9.55275 54.0672 11.7473C60.2426 13.9419 65.6286 17.9184 69.5442 23.174C72.1447 26.6637 74.0322 30.6315 75.099 34.8508C76.1658 39.0701 76.3909 43.4582 75.7615 47.7645C75.1322 52.0708 73.6606 56.2109 71.4309 59.9484C69.2012 63.6859 66.2571 66.9475 62.7667 69.5469Z" fill="#FF6412"/>
<path opacity="0.1" d="M40.3326 9.89151L30.6106 73.3348C30.1406 73.153 29.6712 72.9598 29.2079 72.7613C26.2111 71.4506 23.4343 69.705 20.9694 67.5822L29.3667 12.7815C32.8323 11.207 36.5418 10.2294 40.3326 9.89151Z" fill="white"/>
<path opacity="0.1" d="M60.4174 15.3215L51.8948 74.8851C47.0747 76.223 42.0089 76.4252 37.0892 75.4761L46.3942 10.433C51.374 10.9623 56.1715 12.6347 60.4174 15.3215Z" fill="white"/>
<path d="M11.0236 28.8514C13.8165 22.5328 18.4204 17.1843 24.253 13.4822C30.0857 9.78015 36.8852 7.89074 43.7916 8.05292C50.698 8.21511 57.4013 10.4216 63.0536 14.3934C68.706 18.3652 73.0536 23.9239 75.5467 30.3666C78.0398 36.8093 78.5664 43.8465 77.0599 50.5885C75.5534 57.3305 72.0815 63.4744 67.0832 68.2433C62.0849 73.0121 55.7848 76.1918 48.9794 77.3801C42.174 78.5685 35.1691 77.7122 28.8504 74.9194C20.3779 71.1737 13.7402 64.2162 10.3971 55.577C7.05402 46.9378 7.27938 37.3245 11.0236 28.8514ZM72.3051 55.9357C74.8682 50.1339 75.6535 43.7024 74.5614 37.4544C73.4694 31.2064 70.5492 25.4226 66.17 20.8342C61.7909 16.2458 56.1494 13.059 49.9591 11.6767C43.7688 10.2944 37.3075 10.7787 31.3924 13.0683C25.4772 15.358 20.3738 19.3502 16.7275 24.5401C13.0812 29.73 11.0557 35.8846 10.9072 42.2256C10.7587 48.5665 12.4938 54.8091 15.8931 60.164C19.2924 65.5189 24.2033 69.7456 30.0047 72.3095C33.8573 74.0122 38.0075 74.9393 42.2184 75.0379C46.4293 75.1364 50.6183 74.4046 54.5464 72.8841C58.4744 71.3636 62.0645 69.0843 65.1115 66.1763C68.1586 63.2682 70.603 59.7885 72.3051 55.9357Z" fill="#FF6412"/>
<path d="M63.3626 71.2222C66.4998 73.8633 69.4457 76.7085 72.3262 79.6256C75.2067 82.5426 77.994 85.556 80.7237 88.6343C83.4535 91.7125 86.1179 94.8625 88.6603 98.1414C89.9346 99.7792 91.1716 101.452 92.3711 103.161C93.5736 104.886 94.7513 106.608 95.8362 108.454C96.0867 108.881 96.1929 109.395 96.1363 109.908C96.0798 110.42 95.8641 110.9 95.5264 111.263C95.1887 111.626 94.75 111.85 94.2858 111.897C93.8216 111.945 93.3609 111.812 92.9829 111.521C91.3411 110.262 89.8248 108.905 88.3152 107.522C86.8055 106.139 85.3405 104.709 83.9007 103.247C81.0203 100.33 78.2578 97.2876 75.5687 94.1665C72.8795 91.0453 70.2435 87.8668 67.7015 84.584C65.1596 81.3013 62.6822 77.9546 60.3966 74.3998C60.1107 73.9598 59.9802 73.4166 60.029 72.8699C60.0778 72.3232 60.3026 71.8096 60.6622 71.4234C61.0218 71.0371 61.4921 70.8041 61.9867 70.767C62.4814 70.7299 62.9674 70.8912 63.3555 71.2214L63.3626 71.2222Z" fill="#FF6412"/>
<path d="M77.0532 82.3525L72.1125 83.1044L75.6467 86.2038C75.6467 86.2038 78.4393 85.1809 78.7155 83.2885L77.0532 82.3525Z" fill="#FECEA5"/>
<path d="M69.4426 85.9429L72.5472 88.3774L76.3371 85.9019L72.1124 83.1145L69.4426 85.9429Z" fill="#FECEA5"/>
</svg>
