<svg width="16" height="16" viewBox="0 0 16 16" fill="none" xmlns="http://www.w3.org/2000/svg">
<path fill-rule="evenodd" clip-rule="evenodd" d="M8.25 3C5.66685 3 3.85667 4.1649 2.69821 5.32348C2.11971 5.90205 1.70224 6.48018 1.42906 6.91409C1.29235 7.13125 1.19142 7.31285 1.12424 7.44112C1.09064 7.50527 1.06545 7.55614 1.04843 7.5915C1.03991 7.60919 1.03344 7.623 1.02897 7.63267L1.02376 7.64403L1.02228 7.64731L1.02182 7.64834L1.02166 7.6487C1.0216 7.64884 1.02154 7.64896 1.25 7.75049L1.02154 7.64896C0.992816 7.71361 0.992819 7.78739 1.02155 7.85203L1.25 7.75049C1.02155 7.85203 1.0216 7.85215 1.02167 7.85229L1.02183 7.85265L1.02229 7.85368L1.02377 7.85697L1.02898 7.86832C1.03345 7.87799 1.03992 7.8918 1.04844 7.90948C1.06546 7.94484 1.09065 7.9957 1.12425 8.05984C1.19143 8.18808 1.29236 8.36964 1.42907 8.58675C1.70225 9.02057 2.11973 9.59859 2.69823 10.177C3.85669 11.3354 5.66686 12.5 8.25 12.5C10.8331 12.5 12.6433 11.3354 13.8018 10.177C14.3803 9.59859 14.7977 9.02057 15.0709 8.58675C15.2076 8.36964 15.3086 8.18808 15.3757 8.05984C15.4094 7.9957 15.4345 7.94484 15.4516 7.90948C15.4601 7.8918 15.4666 7.87799 15.471 7.86832L15.4762 7.85697L15.4777 7.85368L15.4782 7.85265L15.4783 7.85229C15.4784 7.85215 15.4784 7.85203 15.25 7.75049L15.4784 7.85203C15.5072 7.78739 15.5072 7.71361 15.4785 7.64896L15.25 7.75049C15.4785 7.64896 15.4784 7.64884 15.4783 7.6487L15.4782 7.64834L15.4777 7.64731L15.4762 7.64403L15.471 7.63267C15.4666 7.623 15.4601 7.60919 15.4516 7.5915C15.4345 7.55614 15.4094 7.50527 15.3758 7.44112C15.3086 7.31285 15.2077 7.13125 15.0709 6.91409C14.7978 6.48018 14.3803 5.90205 13.8018 5.32348C12.6433 4.1649 10.8332 3 8.25 3ZM1.56716 7.82782C1.55194 7.79877 1.53871 7.7729 1.52745 7.75048C1.53871 7.72804 1.55194 7.70216 1.56717 7.6731C1.62889 7.55525 1.72328 7.38525 1.85219 7.18048C2.11026 6.77055 2.50529 6.22357 3.05179 5.67701C4.14333 4.58535 5.83315 3.5 8.25 3.5C10.6668 3.5 12.3567 4.58535 13.4482 5.67701C13.9947 6.22357 14.3897 6.77055 14.6478 7.18048C14.7767 7.38525 14.8711 7.55525 14.9328 7.6731C14.9481 7.70216 14.9613 7.72804 14.9725 7.75048C14.9613 7.7729 14.9481 7.79877 14.9328 7.82782C14.8711 7.94564 14.7767 8.1156 14.6478 8.32032C14.3898 8.73016 13.9947 9.27702 13.4482 9.82346C12.3567 10.9149 10.6669 12 8.25 12C5.83314 12 4.14331 10.9149 3.05177 9.82346C2.50527 9.27702 2.11025 8.73016 1.85218 8.32032C1.72326 8.1156 1.62888 7.94564 1.56716 7.82782ZM6 7.75049C6 6.50785 7.00736 5.50049 8.25 5.50049C9.49264 5.50049 10.5 6.50785 10.5 7.75049C10.5 8.99313 9.49264 10.0005 8.25 10.0005C7.00736 10.0005 6 8.99313 6 7.75049ZM8.25 5.00049C6.73122 5.00049 5.5 6.23171 5.5 7.75049C5.5 9.26927 6.73122 10.5005 8.25 10.5005C9.76878 10.5005 11 9.26927 11 7.75049C11 6.23171 9.76878 5.00049 8.25 5.00049Z" fill="#9E9E9E"/>
</svg>
