<svg width="153" height="160" viewBox="0 0 153 160" fill="none" xmlns="http://www.w3.org/2000/svg">
<path d="M102.845 9.33813H0L6.76797 149.4H109.613L102.845 9.33813Z" fill="#E9E9E9"/>
<path opacity="0.2" d="M102.845 9.33813H0L6.76797 149.4H109.613L102.845 9.33813Z" fill="black"/>
<path d="M103.795 9.33813H0.950195L7.72263 149.4H110.567L103.795 9.33813Z" fill="#E9E9E9"/>
<path opacity="0.2" d="M98.3653 14.0491H5.65259L12.1306 143.069L92.7484 142.962L106.146 131.085L98.3653 14.0491Z" fill="black"/>
<path d="M99.0747 14.0447C100.063 52.6834 103.184 91.2381 108.421 129.533C101.075 134.589 93.7656 139.646 86.4935 144.702H17.1541C10.6094 101.431 6.76812 57.7937 5.65259 14.0447H99.0747Z" fill="white"/>
<path d="M108.421 129.533C101.075 134.59 93.7655 139.646 86.4934 144.702C88.0817 138.01 89.7369 131.318 91.459 124.626L108.421 129.533Z" fill="#F2F2F2"/>
<path d="M77.4546 12.8046C75.9467 8.78932 72.4623 6.15262 68.7147 6.15262H61.0768C60.5082 6.14766 59.9536 5.97592 59.4817 5.65869C59.0098 5.34146 58.6414 4.8927 58.4222 4.36805C57.8823 3.08574 56.9794 1.98918 55.8245 1.21319C54.6696 0.437209 53.3132 0.0156402 51.9219 0.000325232C50.576 -0.0133235 49.2609 0.402937 48.168 1.18852C47.0751 1.9741 46.2614 3.08799 45.8455 4.36805C45.676 4.8918 45.3433 5.34757 44.8962 5.66867C44.4491 5.98977 43.9109 6.15936 43.3605 6.15262H35.727C31.9749 6.15262 28.7448 8.8027 27.6295 12.8046L27.1833 14.3973H78.0435L77.4546 12.8046Z" fill="#424242"/>
<path d="M77.7268 15.9672H27.6697C27.2475 15.9623 26.8429 15.7975 26.5374 15.5061C26.2319 15.2147 26.0482 14.8183 26.0234 14.3968C26.0124 14.1943 26.0431 13.9917 26.1134 13.8015C26.1837 13.6113 26.2922 13.4374 26.4322 13.2907C26.5722 13.144 26.7408 13.0275 26.9275 12.9484C27.1142 12.8694 27.3152 12.8293 27.518 12.8309H77.5751C77.9966 12.8357 78.4006 12.9998 78.706 13.2903C79.0113 13.5808 79.1955 13.9761 79.2214 14.3968C79.233 14.5997 79.2028 14.8028 79.1328 14.9935C79.0628 15.1843 78.9544 15.3586 78.8143 15.5058C78.6743 15.653 78.5055 15.7699 78.3184 15.8493C78.1313 15.9286 77.93 15.9688 77.7268 15.9672Z" fill="#C7C7C7"/>
<path opacity="0.2" d="M77.7268 15.9672H27.6697C27.2475 15.9623 26.8429 15.7975 26.5374 15.5061C26.2319 15.2147 26.0482 14.8183 26.0234 14.3968C26.0124 14.1943 26.0431 13.9917 26.1134 13.8015C26.1837 13.6113 26.2922 13.4374 26.4322 13.2907C26.5722 13.144 26.7408 13.0275 26.9275 12.9484C27.1142 12.8694 27.3152 12.8293 27.518 12.8309H77.5751C77.9966 12.8357 78.4006 12.9998 78.706 13.2903C79.0113 13.5808 79.1955 13.9761 79.2214 14.3968C79.233 14.5997 79.2028 14.8028 79.1328 14.9935C79.0628 15.1843 78.9544 15.3586 78.8143 15.5058C78.6743 15.653 78.5055 15.7699 78.3184 15.8493C78.1313 15.9286 77.93 15.9688 77.7268 15.9672Z" fill="black"/>
<path d="M123.7 156.656H120.423L120.097 149.069H123.374L123.7 156.656Z" fill="#FECEA5"/>
<path d="M143.366 156.656H140.089L138.444 149.069H141.717L143.366 156.656Z" fill="#FECEA5"/>
<path d="M139.857 156.277H143.536C143.601 156.276 143.664 156.298 143.715 156.339C143.765 156.38 143.8 156.437 143.813 156.5L144.462 159.415C144.476 159.486 144.475 159.559 144.458 159.629C144.44 159.699 144.408 159.764 144.362 159.82C144.316 159.876 144.258 159.921 144.192 159.951C144.127 159.982 144.055 159.997 143.983 159.996C142.7 159.974 142.074 159.898 140.456 159.898C139.459 159.898 137.407 160.001 136.034 160.001C134.662 160.001 134.479 158.659 135.042 158.521C137.568 157.967 138.516 157.207 139.325 156.478C139.472 156.348 139.661 156.277 139.857 156.277Z" fill="#241E17"/>
<path d="M120.445 156.277H124.022C124.087 156.276 124.15 156.298 124.2 156.339C124.251 156.38 124.286 156.437 124.299 156.5L124.947 159.415C124.963 159.483 124.964 159.554 124.949 159.623C124.934 159.691 124.904 159.756 124.861 159.811C124.819 159.867 124.764 159.912 124.702 159.944C124.639 159.976 124.57 159.994 124.5 159.996C123.208 159.974 121.344 159.898 119.721 159.898C117.825 159.898 116.189 160.001 113.963 160.001C112.622 160.001 112.246 158.659 112.809 158.521C115.371 157.958 117.463 157.899 119.676 156.531C119.905 156.379 120.171 156.291 120.445 156.277Z" fill="#241E17"/>
<path d="M126.865 37.1514C126.418 39.5476 126.159 42.5162 127.835 44.1167C127.835 44.1167 126.874 46.5487 122.421 46.5487C118.353 46.5487 120.391 44.1167 120.391 44.1167C123.074 43.4773 122.922 40.1735 122.457 38.3048L126.865 37.1514Z" fill="#FECEA5"/>
<path d="M119.113 44.4512C119.202 43.8566 120.249 43.1637 121.438 42.9044C122.627 42.6451 127.196 42.0684 128.591 42.6451C129.986 43.2218 128.349 44.9296 128.349 44.9296L119.113 44.4512Z" fill="#E9E9E9"/>
<path d="M134.622 47.0667L130.674 49.7043C130.674 49.7043 136.343 59.7857 135.869 61.3996C135.221 63.5991 134.318 68.4051 133.088 70.8461C133.249 71.3736 134.067 72.5762 134.523 72.7819C137.653 70.4035 140.814 62.9464 140.697 60.8586C140.425 56.1242 134.622 47.0667 134.622 47.0667Z" fill="#FECEA5"/>
<path d="M148.557 87.6647L148.293 88.161L146.523 91.5095L83.6741 58.2791L85.7037 54.4343L148.557 87.6647Z" fill="#FF6412"/>
<path d="M152.62 79.9884L151.324 82.4383L150.591 83.8242L87.7377 50.5938L89.7673 46.749L152.62 79.9884Z" fill="#FF6412"/>
<path d="M87.7587 50.5826L85.7246 54.4226L148.552 87.7019L150.586 83.8619L87.7587 50.5826Z" fill="#FF6412"/>
<path opacity="0.2" d="M87.7587 50.5826L85.7246 54.4226L148.552 87.7019L150.586 83.8619L87.7587 50.5826Z" fill="#424242"/>
<path d="M80.9646 47.2586L79.1361 50.7189L83.6738 58.2788L89.7673 46.7534L80.9646 47.2586Z" fill="#FF6412"/>
<path opacity="0.8" d="M80.9646 47.2586L79.1361 50.7189L83.6738 58.2788L89.7673 46.7534L80.9646 47.2586Z" fill="white"/>
<path d="M77.1917 47.4781L79.1364 50.7193L80.9649 47.259L77.1917 47.4781Z" fill="#241E17"/>
<path d="M133.683 44.8581C136.781 45.3051 140.331 56.0347 140.331 56.0347L133.822 59.7096C133.822 59.7096 130.956 54.622 129.548 50.8219C128.063 46.8475 130.361 44.3752 133.683 44.8581Z" fill="#F2F2F2"/>
<path opacity="0.2" d="M131.881 48.5378C130.473 47.2502 131.336 52.7625 132.006 56.2899C132.351 56.9784 132.677 57.6043 132.954 58.1273C134.523 55.3555 133.821 50.3126 131.881 48.5378Z" fill="#424242"/>
<path d="M115.335 45.0279C115.335 45.0279 111.468 54.917 115.138 73.3361H132.677C132.798 70.6537 131.108 57.5279 133.701 44.8581C131.764 44.4841 129.804 44.2362 127.835 44.1159C125.356 43.9728 122.871 43.9728 120.391 44.1159C118.685 44.2866 116.994 44.5915 115.335 45.0279Z" fill="#F2F2F2"/>
<path d="M118.031 49.6238L113.614 47.8757C113.614 47.8757 108.526 58.2611 106.908 58.7841C104.731 59.4994 100.26 61.4665 97.551 61.851C97.2112 62.2981 96.6837 63.6393 96.7686 64.131C100.502 65.3515 108.446 63.7332 110.091 62.4546C113.864 59.5397 118.031 49.6238 118.031 49.6238Z" fill="#FECEA5"/>
<path opacity="0.2" d="M118.527 48.4438C117.799 46.7628 116.404 46.0609 114.951 46.3068C114.388 48.3678 113.435 52.8966 113.61 59.7188L114.651 60.2195C114.651 60.2195 119.775 51.3184 118.527 48.4438Z" fill="#424242"/>
<path d="M119.225 47.2675C120.325 50.2003 114.754 58.8286 114.754 58.8286L108.2 55.2521C109.185 52.5684 110.454 49.998 111.987 47.5849C114.289 44.147 118.013 44.0531 119.225 47.2675Z" fill="#F2F2F2"/>
<path d="M97.712 61.8428L93.8136 62.6698L95.7896 66.2777C96.8793 65.7356 97.8693 65.0131 98.7179 64.1407L97.712 61.8428Z" fill="#FECEA5"/>
<path d="M91.9718 63.4868L93.5276 65.6416L95.7897 66.2943L93.8137 62.6865L91.9718 63.4868Z" fill="#FECEA5"/>
<path d="M119.435 33.704C119.435 33.9678 119.269 34.1511 119.095 34.1511C118.921 34.1511 118.795 33.9186 118.813 33.6548C118.831 33.3911 118.979 33.2078 119.153 33.2078C119.327 33.2078 119.453 33.4402 119.435 33.704Z" fill="#424242"/>
<path d="M119.667 33.7261C119.306 34.5138 118.838 35.2479 118.277 35.9078C118.449 36.0474 118.651 36.1474 118.866 36.2007C119.082 36.254 119.306 36.2593 119.524 36.2162L119.667 33.7261Z" fill="#E0995B"/>
<path d="M119.099 32.7917C119.076 32.7867 119.053 32.7777 119.032 32.7649C119.015 32.754 119 32.7398 118.988 32.723C118.977 32.7062 118.969 32.6872 118.964 32.6671C118.96 32.6471 118.96 32.6264 118.964 32.6064C118.968 32.5863 118.976 32.5672 118.988 32.5503C119.117 32.341 119.295 32.1654 119.505 32.0379C119.716 31.9104 119.954 31.8348 120.199 31.8171C120.24 31.8193 120.279 31.8365 120.308 31.8654C120.336 31.8942 120.354 31.9328 120.356 31.9736C120.356 32.0151 120.339 32.0549 120.31 32.0843C120.281 32.1136 120.241 32.1301 120.199 32.1301C120.009 32.1479 119.825 32.2101 119.662 32.3118C119.5 32.4135 119.364 32.5519 119.265 32.7157C119.249 32.7441 119.224 32.7666 119.194 32.7803C119.165 32.7939 119.132 32.7979 119.099 32.7917Z" fill="#424242"/>
<path d="M128.323 33.4761C127.938 36.7039 127.876 38.6084 126.146 40.182C123.539 42.5425 119.627 40.8303 119.037 37.5488C118.51 34.5982 119.229 29.8191 122.475 28.7103C123.189 28.4632 123.955 28.4027 124.699 28.5346C125.443 28.6664 126.141 28.9862 126.727 29.4636C127.313 29.9411 127.767 30.5603 128.046 31.2625C128.326 31.9648 128.421 32.7267 128.323 33.4761Z" fill="#FECEA5"/>
<path d="M121.818 34.1063C120.687 34.3298 118.881 31.8173 120.356 29.6848C119.609 29.3138 117.173 30.7801 116.256 29.4121C115.34 28.0441 117.884 27.3154 117.397 26.1575C119.122 26.5107 116.279 28.6655 117.92 28.4554C119.56 28.2453 121.451 25.2142 123.284 26.457C126.526 28.6342 130.943 25.004 129.141 29.5507C131.349 29.1036 132.861 31.7145 130.755 33.5251C126.557 37.124 129.141 37.5979 126.481 37.7812C125.149 37.8795 122.05 36.2925 121.818 34.1063Z" fill="#424242"/>
<path d="M123.494 34.9517C123.339 35.2744 123.122 35.5629 122.854 35.8001C122.586 36.0374 122.273 36.2186 121.934 36.3331C121.04 36.6416 120.526 35.8413 120.736 34.9606C120.924 34.1648 121.63 33.0472 122.555 33.1276C122.758 33.1475 122.953 33.2179 123.122 33.3326C123.291 33.4472 123.428 33.6023 123.522 33.7838C123.615 33.9653 123.662 34.1672 123.657 34.3713C123.652 34.5753 123.596 34.7748 123.494 34.9517Z" fill="#FECEA5"/>
<path d="M121.353 73.3362C121.353 73.3362 125.073 98.3719 127.111 107.76C129.347 118.043 137.765 152.239 137.765 152.239H143.764C143.764 152.239 138.216 118.861 136.938 108.69C135.556 97.6566 132.659 73.3496 132.659 73.3496L121.353 73.3362Z" fill="#C7C7C7"/>
<path opacity="0.2" d="M125.77 82.09C125.493 81.6966 125.242 81.5625 125.01 81.643H124.961C124.908 81.6661 124.858 81.6962 124.813 81.7324C124.766 81.771 124.722 81.8145 124.684 81.862L124.612 81.9514L124.518 82.099C124.44 82.2291 124.373 82.3651 124.317 82.5058C124.281 82.5907 124.245 82.6801 124.214 82.7696C124.183 82.859 124.134 82.9976 124.098 83.1227C124.062 83.2479 123.995 83.4625 123.946 83.6458C123.946 83.695 123.924 83.7397 123.91 83.7889C123.897 83.838 123.861 83.9945 123.839 84.0973C123.816 84.2002 123.798 84.2762 123.78 84.3656C123.74 84.5399 123.704 84.7232 123.669 84.911C123.633 85.0988 123.593 85.3178 123.557 85.528C123.557 85.5995 123.535 85.671 123.521 85.747C123.476 86.0153 123.436 86.288 123.396 86.5696C124.388 92.8017 125.569 99.9458 126.525 104.931C126.57 104.77 126.619 104.6 126.66 104.416C126.855 103.585 127.004 102.743 127.107 101.895C127.952 95.4707 127.563 84.6517 125.77 82.09Z" fill="#424242"/>
<path d="M115.139 73.3362C115.139 73.3362 114.692 97.8264 115.045 107.818C115.416 118.208 119.046 152.225 119.046 152.225H124.594C124.594 152.225 124.795 118.812 125.041 108.61C125.31 97.4867 126.651 73.3362 126.651 73.3362H115.139Z" fill="#C7C7C7"/>
</svg>
