<svg width="152" height="171" viewBox="0 0 152 171" fill="none" xmlns="http://www.w3.org/2000/svg">
<path d="M14.2082 35.3518C13.8648 36.784 13.486 38.3733 13.1716 39.8967C12.8573 41.4202 12.5352 42.9794 12.2643 44.5161C11.6944 47.5289 11.3224 50.5757 11.1506 53.6372C11.1177 54.0138 11.1303 54.3759 11.1229 54.7414L11.1191 55.2918L11.1163 55.7252C11.1499 56.3311 11.237 56.9328 11.3765 57.5233C11.7364 58.9645 12.1784 60.3839 12.7002 61.7747C13.7775 64.6793 15.0597 67.6594 16.3251 70.5805L13.1744 72.5875C11.0058 69.9859 9.07646 67.1934 7.40986 64.2442C6.52338 62.6955 5.76731 61.0755 5.14951 59.4011C4.78724 58.4393 4.53012 57.441 4.38264 56.4237L4.3098 55.9893C4.28627 55.8489 4.2717 55.762 4.25153 55.6417L4.20624 54.9621C4.18014 54.5198 4.13177 54.0675 4.12901 53.6006C4.05877 50.1467 4.2812 46.6931 4.79391 43.2768C5.04685 41.5918 5.31651 39.9247 5.67856 38.2763C6.04061 36.628 6.38712 35.0098 6.90268 33.2944L14.2082 35.3518Z" fill="#8B644E"/>
<path d="M16.0778 68.7549L18.718 71.3303L12.9569 74.0413C12.9569 74.0413 11.5624 71.6014 12.5237 69.392L16.0778 68.7549Z" fill="#8B644E"/>
<path d="M20.844 75.1734L15.9833 77.1659L12.9572 74.0144L18.7183 71.3306L20.844 75.1734Z" fill="#8B644E"/>
<path d="M85.033 59.3428C84.891 61.3882 84.5134 61.6312 84.1257 61.6671L82.9946 62.0192L80.7237 62.7588L76.1869 64.1665L67.1019 66.8823C61.04 68.6506 54.9738 70.3618 48.9036 72.0159L30.689 77.0316L21.5914 79.576C18.559 80.4511 15.5201 81.245 12.5064 82.2919C12.2006 82.3991 11.8867 82.4182 11.5825 82.3482C11.2782 82.2782 10.9897 82.1204 10.7333 81.8838C10.4769 81.6472 10.2576 81.3364 10.0881 80.9692C9.91856 80.6021 9.80203 80.1857 9.74516 79.7439C9.6883 79.3021 9.69221 78.8435 9.75667 78.3943C9.82114 77.9451 9.9449 77.5141 10.1209 77.1259C10.2969 76.7376 10.5216 76.3998 10.7823 76.1317C11.043 75.8636 11.3346 75.6704 11.6403 75.5632L11.7377 75.57C14.7755 74.7043 17.7765 73.5757 20.7836 72.5373L29.8108 69.3328L47.8544 62.8153C53.8718 60.631 59.8914 58.5037 65.9131 56.4335L74.9633 53.3382L79.4929 51.8583L81.7577 51.1183L82.8901 50.7483C83.2585 50.5495 83.6498 50.5498 84.2457 52.3593C84.9451 54.5031 85.2174 56.9187 85.033 59.3428Z" fill="#FF6412"/>
<path d="M151.381 45.2638C151.381 21.5832 132.206 2.38624 108.552 2.38624C84.8985 2.38624 65.7232 21.5832 65.7232 45.2638C65.7232 68.9444 84.8985 88.1414 108.552 88.1414C132.206 88.1414 151.381 68.9444 151.381 45.2638Z" fill="#FF6412"/>
<path d="M108.232 81.7184C128.408 81.7184 144.765 65.4967 144.765 45.4863C144.765 25.4758 128.408 9.25415 108.232 9.25415C88.0557 9.25415 71.6995 25.4758 71.6995 45.4863C71.6995 65.4967 88.0557 81.7184 108.232 81.7184Z" fill="white"/>
<path opacity="0.2" d="M72.9571 54.9109C71.0776 47.9917 71.3092 40.6751 73.6224 33.8864C75.9356 27.0977 80.2266 21.1417 85.9528 16.7716C91.679 12.4015 98.5832 9.81359 105.792 9.33505C113.002 8.85651 120.192 10.5089 126.454 14.0832C132.717 17.6575 137.77 22.9932 140.974 29.4156C144.179 35.838 145.392 43.0587 144.459 50.1646C143.526 57.2705 140.489 63.9425 135.733 69.3368C130.977 74.7312 124.715 78.6056 117.738 80.4703C113.106 81.7084 108.273 82.0295 103.515 81.4151C98.7573 80.8007 94.1682 79.2628 90.0099 76.8894C85.8515 74.516 82.2052 71.3534 79.2793 67.5823C76.3534 63.8112 74.2051 59.5055 72.9571 54.9109Z" fill="#FF6412"/>
<path opacity="0.2" d="M134.719 20.5278L104.633 81.5376C107.214 81.7988 109.815 81.7769 112.391 81.4722L139.444 26.636C138.095 24.4373 136.511 22.3894 134.719 20.5278ZM143.51 36.0562L143.312 35.3299L121.709 79.1408C130.04 75.861 136.865 69.6591 140.885 61.7149C144.905 53.7708 145.839 44.6388 143.51 36.0562ZM98.7289 10.512C92.3521 12.2163 86.5604 15.6023 81.9697 20.3099C77.3791 25.0176 74.1612 30.8709 72.6582 37.2473C71.1553 43.6236 71.4235 50.2846 73.4343 56.5219C75.4451 62.7592 79.1234 68.3395 84.0779 72.6694L115.072 9.8946C109.648 8.86705 104.059 9.07819 98.7289 10.512Z" fill="white"/>
<path d="M148.781 34.4585C146.62 26.3651 142.13 19.1 135.879 13.5819C129.627 8.06372 121.895 4.54028 113.659 3.45703C105.424 2.37377 97.055 3.77935 89.611 7.49606C82.1669 11.2128 75.9819 17.0737 71.838 24.3378C67.694 31.602 65.7772 39.9431 66.3298 48.3067C66.8824 56.6702 69.8797 64.6806 74.9427 71.325C80.0057 77.9695 86.9071 82.9496 94.7742 85.6357C102.641 88.3219 111.121 88.5934 119.141 86.416C124.468 84.9698 129.461 82.4784 133.834 79.0843C138.206 75.6902 141.874 71.4598 144.626 66.6348C147.379 61.8098 149.162 56.4847 149.875 50.9638C150.588 45.443 150.216 39.8344 148.781 34.4585ZM70.6716 55.7139C68.6704 48.2166 68.917 40.2887 71.38 32.9328C73.843 25.5768 78.412 19.1232 84.5091 14.388C90.6061 9.65277 97.9576 6.8486 105.634 6.33007C113.31 5.81154 120.966 7.60194 127.634 11.4749C134.302 15.3478 139.682 21.1294 143.094 28.0884C146.507 35.0474 147.798 42.8714 146.805 50.5711C145.811 58.2707 142.578 65.5001 137.514 71.3451C132.449 77.1902 125.782 81.3884 118.353 83.4088C113.42 84.7503 108.273 85.0978 103.207 84.4316C98.1411 83.7653 93.2545 82.0983 88.8267 79.5258C84.3989 76.9533 80.5166 73.5256 77.4015 69.4386C74.2864 65.3515 71.9996 60.6852 70.6716 55.706V55.7139Z" fill="#FF6412"/>
<path d="M34.337 11.8784C34.337 12.2783 34.5469 12.6036 34.8109 12.6036C35.0749 12.6036 35.2848 12.2783 35.2848 11.8784C35.2848 11.4786 35.0749 11.1465 34.8109 11.1465C34.5469 11.1465 34.337 11.4718 34.337 11.8784Z" fill="#424242"/>
<path d="M34.5482 11.3835C35.0239 12.6112 35.6663 13.7675 36.4572 14.8197C36.1834 15.0158 35.87 15.1496 35.539 15.2117C35.2081 15.2737 34.8676 15.2625 34.5414 15.1789L34.5482 11.3835Z" fill="#704832"/>
<path d="M32.9502 8.42217C32.901 8.42079 32.8535 8.40413 32.8143 8.37451C32.775 8.34488 32.7459 8.30376 32.731 8.25683C32.7161 8.20991 32.7162 8.15951 32.7312 8.11263C32.7462 8.06575 32.7755 8.0247 32.8148 7.99519C33.1139 7.77073 33.4619 7.62052 33.8303 7.5569C34.1986 7.49327 34.5768 7.51806 34.9337 7.62921C34.9919 7.65195 35.0387 7.69672 35.0641 7.75383C35.0894 7.81094 35.0912 7.87576 35.0691 7.9342C35.0464 7.99241 35.0017 8.0393 34.9447 8.06468C34.8876 8.09006 34.8229 8.09188 34.7645 8.06974C34.4804 7.98512 34.1804 7.96863 33.8887 8.02161C33.597 8.0746 33.3219 8.19556 33.0856 8.37473C33.0474 8.40597 32.9995 8.42277 32.9502 8.42217Z" fill="#424242"/>
<path d="M21.4552 13.2544C21.814 17.1785 21.8614 24.3152 19.0925 26.6534C19.0925 26.6534 19.7221 30.6588 26.4513 31.2824C33.8506 31.9601 30.3507 27.6971 30.3507 27.6971C26.4039 26.2942 26.8033 23.1088 27.7849 20.1809L21.4552 13.2544Z" fill="#8B644E"/>
<path d="M34.5296 166.784H39.1256L39.5827 156.667H34.9867L34.5296 166.784Z" fill="#8B644E"/>
<path d="M2.52655 158.393L7.28009 159.196L12.6328 149.875L7.87922 149.078L2.52655 158.393Z" fill="#8B644E"/>
<path d="M8.07225 158.83L2.7813 157.524C2.68815 157.502 2.58837 157.506 2.49832 157.535C2.40827 157.565 2.3333 157.619 2.2857 157.689L0.0889509 160.892C0.03652 160.971 0.00642545 161.058 0.000920898 161.147C-0.00458365 161.236 0.0146423 161.326 0.0571635 161.408C0.0996847 161.49 0.164398 161.564 0.246453 161.623C0.328507 161.681 0.425776 161.724 0.530976 161.748C2.38616 162.176 3.3171 162.297 5.64109 162.884C7.07434 163.235 10.8383 164.529 12.8207 165.007C14.8031 165.484 15.6403 163.953 14.8835 163.608C11.4946 162.066 9.59925 160.399 8.74868 159.258C8.5965 159.051 8.35514 158.898 8.07225 158.83Z" fill="#241E17"/>
<path d="M39.5603 165.941H34.2401C34.1436 165.941 34.0499 165.971 33.9747 166.026C33.8996 166.081 33.8477 166.158 33.8278 166.244L32.8635 170.2C32.8392 170.295 32.8391 170.394 32.863 170.489C32.887 170.584 32.9344 170.673 33.0017 170.749C33.069 170.825 33.1545 170.886 33.2515 170.928C33.3486 170.969 33.4547 170.989 33.5618 170.988C35.4904 170.988 38.2701 170.861 40.6908 170.861C43.5172 170.861 45.9578 171 49.2763 171C51.2713 171 51.8366 169.152 50.9987 168.983C47.1748 168.225 44.0558 168.14 40.7507 166.286C40.3972 166.072 39.9847 165.952 39.5603 165.941Z" fill="#241E17"/>
<path d="M9.73012 27.9209C5.41101 29.9541 3.63733 43.8885 3.63733 43.8885L13.555 47.7855C15.0939 44.0131 16.3388 40.1271 17.2784 36.1622C18.7001 29.8728 14.1643 25.8063 9.73012 27.9209Z" fill="#FF6412"/>
<path d="M9.73012 27.9209C5.41101 29.9541 3.63733 43.8885 3.63733 43.8885L13.555 47.7855C15.0939 44.0131 16.3388 40.1271 17.2784 36.1622C18.7001 29.8728 14.1643 25.8063 9.73012 27.9209Z" fill="#F2F2F2"/>
<path opacity="0.2" d="M16.1816 32.0077C16.5196 31.8433 16.8735 31.7139 17.2377 31.6213C17.6333 33.1073 17.6473 34.6694 17.2783 36.1622C16.3387 40.127 15.0938 44.0131 13.5549 47.7855L10.2851 46.5046C10.8876 42.8651 12.7358 33.6613 16.1816 32.0077Z" fill="#9E9E9E"/>
<path d="M38.5153 27.8122C38.5153 27.8122 43.8092 33.7967 38.8064 70.8489H12.208C12.0252 66.7824 14.5909 46.8161 10.6509 27.5547C13.5933 26.9881 16.5692 26.6124 19.5599 26.4296C23.3253 26.2126 27.1001 26.2126 30.8654 26.4296C33.4475 26.6901 36.0053 27.1523 38.5153 27.8122Z" fill="#FF6412"/>
<path d="M38.5153 27.8122C38.5153 27.8122 43.8092 33.7967 38.8064 70.8489H12.208C12.0252 66.7824 14.5909 46.8161 10.6509 27.5547C13.5933 26.9881 16.5692 26.6124 19.5599 26.4296C23.3253 26.2126 27.1001 26.2126 30.8654 26.4296C33.4475 26.6901 36.0053 27.1523 38.5153 27.8122Z" fill="#F2F2F2"/>
<path opacity="0.2" d="M33.1601 35.7552C34.3651 32.1361 37.2626 30.9771 40.2142 33.1256C40.8099 36.6363 41.2297 42.2954 40.749 51.2687L35.5566 51.2213C35.5566 51.2213 31.3932 41.1433 33.1601 35.7552Z" fill="#9E9E9E"/>
<path d="M41.5887 33.2817C41.8459 34.8338 42.1303 36.5281 42.4484 38.1412C42.7666 39.7542 43.1254 41.3943 43.5045 42.9938C44.2055 46.1401 45.1586 49.2248 46.3546 52.2179C46.6592 52.8956 46.9707 53.614 47.3159 54.2511L47.7559 55.0508C47.8668 55.231 47.9961 55.3991 48.1418 55.5524C49.1499 56.5098 50.2898 57.3178 51.5267 57.9516C54.4497 59.4731 57.4634 60.8131 60.5508 61.9638L59.8129 65.6236C56.1714 65.3713 52.5793 64.6374 49.1302 63.4413C48.2038 63.1185 47.2992 62.7359 46.4223 62.2959C45.4619 61.8054 44.5545 61.2171 43.7144 60.5406C43.2202 60.1338 42.7667 59.6798 42.3604 59.1851L42.0355 58.7581L41.8256 58.4396C41.6835 58.2295 41.5413 58.0194 41.4127 57.8093C40.8846 56.9621 40.4175 56.1149 39.9843 55.2609C38.3993 51.9422 37.1432 48.4759 36.2338 44.9118C35.7802 43.17 35.3605 41.435 35.022 39.6796C34.6835 37.9243 34.345 36.2096 34.1419 34.339L41.5887 33.2817Z" fill="#8B644E"/>
<path d="M31.8674 31.4653C30.4661 36.013 36.1527 49.5679 36.1527 49.5679L48.1284 46.5519C47.3953 42.2674 46.1615 38.0842 44.4524 34.0882C40.5666 25.63 33.5531 25.9824 31.8674 31.4653Z" fill="#FF6412"/>
<path d="M31.8674 31.4653C30.4661 36.013 36.1527 49.5679 36.1527 49.5679L48.1284 46.5519C47.3953 42.2674 46.1615 38.0842 44.4524 34.0882C40.5666 25.63 33.5531 25.9824 31.8674 31.4653Z" fill="#F2F2F2"/>
<path d="M60.6251 61.9637L65.7634 64.2748L60.7808 68.3887C60.7808 68.3887 58.5874 67.6703 58.2286 64.0647L57.4636 61.0691L59.718 61.6452C60.0293 61.7238 60.3329 61.8304 60.6251 61.9637Z" fill="#8B644E"/>
<path d="M68.4916 66.7688L63.4888 69.7576L60.7809 68.3615L65.7566 64.2476L68.4916 66.7688Z" fill="#8B644E"/>
<path d="M33.1262 25.9893C30.9802 24.1729 25.7675 22.8649 19.9319 22.5396C16.5944 22.3566 13.1622 22.9056 11.7337 23.5426C10.3053 24.1797 11.9978 28.7816 13.8662 28.8833C12.8778 30.4421 14.313 33.4513 16.459 34.0409C16.1206 36.6434 22.6737 36.8874 26.6137 34.7864C29.7955 33.1124 35.6987 28.1649 33.1262 25.9893Z" fill="#E9E9E9"/>
<path d="M20.995 9.77757C21.2929 14.7115 21.2116 17.6123 23.7029 20.147C27.4398 23.956 33.5258 21.7058 34.7038 16.7583C35.7666 12.3259 35.0964 5.00627 30.2763 3.03404C29.2135 2.59388 28.0556 2.43382 26.9134 2.56914C25.7712 2.70447 24.6826 3.13065 23.7517 3.80701C22.8208 4.48337 22.0787 5.38733 21.596 6.43257C21.1134 7.47782 20.9065 8.62947 20.995 9.77757Z" fill="#8B644E"/>
<path d="M30.2158 12.5292C32.0774 10.6451 35.1374 6.53794 34.0678 3.45421C32.4904 -1.107 27.7854 0.438257 28.5369 1.34643C25.8289 -0.442809 20.359 -0.530912 21.5031 1.8683C16.5814 2.54604 16.182 4.54538 17.5495 5.29768C14.0428 8.64573 14.212 12.109 16.8725 11.8514C14.8416 13.8847 18.5785 17.9105 22.7555 19.8285C24.1771 16.1009 31.7863 15.4232 30.2158 12.5292Z" fill="#424242"/>
<path d="M28.2995 11.9734C28.3895 13.1971 28.8797 14.3571 29.6941 15.274C30.7772 16.4668 31.9146 15.7213 32.1041 14.2709C32.2734 12.9561 31.9213 10.7535 30.5945 10.096C29.2676 9.43864 28.2115 10.4959 28.2995 11.9734Z" fill="#8B644E"/>
<path d="M29.8775 70.6665C29.8775 70.6665 31.5962 99.7242 28.2488 112.035C22.9471 131.528 12.8079 154.137 12.8079 154.137L3.36874 152.629C3.36874 152.629 11.3179 129.991 13.0713 113.76C14.6168 99.1844 12.3297 82.4433 12.3297 70.6665H29.8775Z" fill="#C7C7C7"/>
<path d="M27.1344 79.9065C27.8099 78.6833 29.1269 82.3275 30.0455 87.0047C30.0455 93.4565 29.9239 100.795 29.3228 107.013C24.7299 99.0589 25.7093 82.4416 27.1344 79.9065Z" fill="#9E9E9E"/>
<path d="M38.9553 70.6665C38.9553 70.6665 46.5668 98.1908 47.1203 111.345C47.7223 126.097 41.6539 160.882 41.6539 160.882H33.0461C33.0461 160.882 31.9874 125.827 31.5999 112.39C31.1848 97.7447 21.0546 70.6665 21.0546 70.6665H38.9553Z" fill="#C7C7C7"/>
</svg>
