<svg width="24" height="24" viewBox="0 0 24 24" fill="none" xmlns="http://www.w3.org/2000/svg">
<g clip-path="url(#clip0_3341_297)">
<path fill-rule="evenodd" clip-rule="evenodd" d="M10.875 4.3125C7.25063 4.3125 4.3125 7.25063 4.3125 10.875C4.3125 14.4994 7.25063 17.4375 10.875 17.4375C14.4994 17.4375 17.4375 14.4994 17.4375 10.875C17.4375 7.25063 14.4994 4.3125 10.875 4.3125ZM3.1875 10.875C3.1875 6.62931 6.62931 3.1875 10.875 3.1875C15.1207 3.1875 18.5625 6.62931 18.5625 10.875C18.5625 15.1207 15.1207 18.5625 10.875 18.5625C6.62931 18.5625 3.1875 15.1207 3.1875 10.875Z" fill="#241E17"/>
<path fill-rule="evenodd" clip-rule="evenodd" d="M16.0454 16.0461C16.265 15.8264 16.6212 15.8264 16.8409 16.0461L21.3972 20.6024C21.6168 20.8221 21.6168 21.1782 21.3972 21.3979C21.1775 21.6176 20.8213 21.6176 20.6017 21.3979L16.0454 16.8416C15.8257 16.6219 15.8257 16.2658 16.0454 16.0461Z" fill="#241E17"/>
</g>
<defs>
<clipPath id="clip0_3341_297">
<rect width="24" height="24" fill="white"/>
</clipPath>
</defs>
</svg>
