<svg width="24" height="24" viewBox="0 0 24 24" fill="none" xmlns="http://www.w3.org/2000/svg">
<g clip-path="url(#clip0_3240_283)">
<path fill-rule="evenodd" clip-rule="evenodd" d="M3.1875 12C3.1875 11.6893 3.43934 11.4375 3.75 11.4375H20.25C20.5607 11.4375 20.8125 11.6893 20.8125 12C20.8125 12.3107 20.5607 12.5625 20.25 12.5625H3.75C3.43934 12.5625 3.1875 12.3107 3.1875 12Z" fill="#241E17"/>
<path fill-rule="evenodd" clip-rule="evenodd" d="M3.1875 6C3.1875 5.68934 3.43934 5.4375 3.75 5.4375H20.25C20.5607 5.4375 20.8125 5.68934 20.8125 6C20.8125 6.31066 20.5607 6.5625 20.25 6.5625H3.75C3.43934 6.5625 3.1875 6.31066 3.1875 6Z" fill="#241E17"/>
<path fill-rule="evenodd" clip-rule="evenodd" d="M3.1875 18C3.1875 17.6893 3.43934 17.4375 3.75 17.4375H20.25C20.5607 17.4375 20.8125 17.6893 20.8125 18C20.8125 18.3107 20.5607 18.5625 20.25 18.5625H3.75C3.43934 18.5625 3.1875 18.3107 3.1875 18Z" fill="#241E17"/>
</g>
<defs>
<clipPath id="clip0_3240_283">
<rect width="24" height="24" fill="white"/>
</clipPath>
</defs>
</svg>
