<svg width="16" height="16" viewBox="0 0 16 16" fill="none" xmlns="http://www.w3.org/2000/svg">
<path fill-rule="evenodd" clip-rule="evenodd" d="M12.4757 7.7256C12.6121 7.86199 12.6121 8.08312 12.4757 8.21951L7.86585 12.8294C7.27638 13.4188 6.47688 13.75 5.64324 13.75C4.8096 13.75 4.01011 13.4188 3.42064 12.8294C2.83116 12.2399 2.5 11.4404 2.5 10.6068C2.5 9.77312 2.83116 8.97362 3.42064 8.38415L9.42967 2.37511C10.2813 1.52343 11.6674 1.54953 12.5254 2.4075C13.3834 3.26547 13.4095 4.65155 12.5578 5.50323L6.63083 11.4302C6.39068 11.6703 6.06496 11.8053 5.72533 11.8053C5.3857 11.8053 5.05998 11.6703 4.81983 11.4302C4.57967 11.19 4.44476 10.8643 4.44476 10.5247C4.44476 10.1851 4.57967 9.85934 4.81983 9.61918L9.42968 5.00933C9.56607 4.87294 9.78721 4.87294 9.9236 5.00933C10.06 5.14572 10.06 5.36685 9.9236 5.50324L5.31374 10.1131C5.20458 10.2223 5.14326 10.3703 5.14326 10.5247C5.14326 10.6791 5.20458 10.8271 5.31374 10.9363C5.4229 11.0454 5.57095 11.1068 5.72533 11.1068C5.8797 11.1068 6.02776 11.0454 6.13692 10.9363L12.0639 5.00932C12.6312 4.44194 12.6283 3.49827 12.0315 2.90141C11.4346 2.30456 10.491 2.30165 9.92358 2.86903L3.91455 8.87806C3.45607 9.33654 3.1985 9.95837 3.1985 10.6068C3.1985 11.2551 3.45607 11.877 3.91455 12.3355C4.37303 12.7939 4.99486 13.0515 5.64324 13.0515C6.29163 13.0515 6.91346 12.7939 7.37194 12.3355L11.9818 7.7256C12.1182 7.58921 12.3393 7.58921 12.4757 7.7256Z" fill="#9E9E9E"/>
</svg>
